<?xml version="1.0" encoding="UTF-8" standalone="no"?>
<svg
   xmlns:dc="http://purl.org/dc/elements/1.1/"
   xmlns:cc="http://creativecommons.org/ns#"
   xmlns:rdf="http://www.w3.org/1999/02/22-rdf-syntax-ns#"
   xmlns:svg="http://www.w3.org/2000/svg"
   xmlns="http://www.w3.org/2000/svg"
   xmlns:sodipodi="http://sodipodi.sourceforge.net/DTD/sodipodi-0.dtd"
   xmlns:inkscape="http://www.inkscape.org/namespaces/inkscape"
   width="723.5495"
   height="723.5495"
   viewBox="0 0 191.43913 191.43913"
   version="1.1"
   id="svg8"
   inkscape:export-filename="C:\Users\d22b290c\Desktop\navody\navody.png"
   inkscape:export-xdpi="96"
   inkscape:export-ydpi="96"
   inkscape:version="1.0.2-2 (e86c870879, 2021-01-15)"
   sodipodi:docname="opendata-catalog.svg">
  <defs
     id="defs2" />
  <sodipodi:namedview
     id="base"
     pagecolor="#ffffff"
     bordercolor="#666666"
     borderopacity="1.0"
     inkscape:pageopacity="0.0"
     inkscape:pageshadow="2"
     inkscape:zoom="0.23728414"
     inkscape:cx="1373.9102"
     inkscape:cy="1566.9236"
     inkscape:document-units="mm"
     inkscape:current-layer="layer1"
     showgrid="false"
     units="px"
     inkscape:window-width="2121"
     inkscape:window-height="1198"
     inkscape:window-x="221"
     inkscape:window-y="173"
     inkscape:window-maximized="0"
     inkscape:document-rotation="0"
     fit-margin-top="0"
     fit-margin-left="0"
     fit-margin-right="0"
     fit-margin-bottom="0" />
  <metadata
     id="metadata5">
    <rdf:RDF>
      <cc:Work
         rdf:about="">
        <dc:format>image/svg+xml</dc:format>
        <dc:type
           rdf:resource="http://purl.org/dc/dcmitype/StillImage" />
        <dc:title />
      </cc:Work>
    </rdf:RDF>
  </metadata>
  <g
     inkscape:label="Vrstva 1"
     inkscape:groupmode="layer"
     id="layer1"
     transform="translate(407.03213,294.26287)">
    <text
       xml:space="preserve"
       style="font-style:normal;font-variant:normal;font-weight:normal;font-stretch:normal;font-size:35.2778px;line-height:1.25;font-family:sans-serif;-inkscape-font-specification:sans-serif;fill:#ffffff;fill-opacity:1;stroke:none;stroke-width:0.264583"
       x="-179.41043"
       y="175.66335"
       id="text835"><tspan
         sodipodi:role="line"
         id="tspan833"
         x="-179.41043"
         y="175.66335"
         style="font-style:normal;font-variant:normal;font-weight:normal;font-stretch:normal;font-size:50.8px;font-family:sans-serif;-inkscape-font-specification:sans-serif;fill:#ffffff;stroke-width:0.264583">Vstopit do katalogu OpenData</tspan></text>
    <circle
       style="fill:#0079c1;fill-opacity:1;stroke:#cccccc;stroke-width:4.111;stroke-linecap:round;stroke-miterlimit:4;stroke-dasharray:none;stroke-opacity:1;paint-order:markers stroke fill"
       id="path843"
       cx="-311.31256"
       cy="-198.5433"
       r="93.66407" />
    <path
       d="m -346.60376,-264.23489 a 11.634196,12.104223 0 0 0 -11.6218,12.10426 11.634196,12.104223 0 0 0 11.6218,12.10426 11.634196,12.104223 0 0 0 3.84917,-0.68278 l 9.67237,17.15684 2.94264,-0.49657 2.42119,-0.39726 -0.99322,-1.76281 -9.74707,-17.28119 a 11.634196,12.104223 0 0 0 3.4767,-8.64049 11.634196,12.104223 0 0 0 -11.60936,-12.10426 z m 67.79373,15.20781 a 11.634196,12.104223 0 0 0 -11.6342,12.10426 11.634196,12.104223 0 0 0 1.71332,6.33144 l -7.47486,7.83358 2.27221,1.56419 2.03612,1.40279 6.7049,-7.01422 a 11.634196,12.104223 0 0 0 6.36969,1.98627 11.634196,12.104223 0 0 0 11.6342,-12.10426 11.634196,12.104223 0 0 0 -11.6342,-12.10425 z m -36.52922,26.97688 c -11.06291,0 -20.71064,3.36447 -20.71064,7.511 0,4.15875 9.64773,7.52322 20.71064,7.52322 11.06309,0 20.69822,-3.37689 20.69822,-7.52322 0,-4.14653 -9.63513,-7.511 -20.69822,-7.511 z m -50.11265,12.93601 a 11.634196,12.104223 0 0 0 -11.54728,11.74425 11.634196,12.104223 0 0 0 11.27414,12.45184 11.634196,12.104223 0 0 0 11.87011,-10.50282 l 13.08679,-1.21659 -0.16554,-5.26362 -13.35993,1.24143 a 11.634196,12.104223 0 0 0 -10.75271,-8.44208 11.634196,12.104223 0 0 0 -0.40971,-0.0124 z m 29.40201,1.53936 v 5.26363 c 0,4.14655 9.64773,7.51099 20.71064,7.51099 11.06309,0 20.69822,-3.36444 20.69822,-7.51099 v -5.26363 c -5.00378,3.74909 -14.50235,4.86638 -20.69822,4.86638 -6.22051,0 -15.71906,-1.12971 -20.71064,-4.86638 z m 0,12.21577 v 5.25141 c 0,4.14656 9.64773,7.51081 20.71064,7.51081 11.06309,0 20.69822,-3.36425 20.69822,-7.51081 v -5.25141 c -5.00378,3.74931 -14.50235,4.86658 -20.69822,4.86658 -6.22051,0 -15.71906,-1.11727 -20.71064,-4.86658 z m 46.38783,1.91179 0.10345,1.26626 0.36005,4.43207 20.36301,6.85285 a 11.634196,12.104223 0 0 0 -0.0414,1.03038 11.634196,12.104223 0 0 0 11.63421,12.09183 11.634196,12.104223 0 0 0 11.62179,-12.09183 11.634196,12.104223 0 0 0 -11.62179,-12.10427 11.634196,12.104223 0 0 0 -10.06966,6.04593 z m -34.65432,18.90744 -3.93586,17.49202 a 11.634196,12.104223 0 0 0 -0.0827,0 11.634196,12.104223 0 0 0 -11.62179,12.10426 11.634196,12.104223 0 0 0 11.62179,12.09184 11.634196,12.104223 0 0 0 11.6342,-12.09184 11.634196,12.104223 0 0 0 -6.6304,-10.9249 l 4.04759,-17.93893 -2.272,-0.3352 z"
       id="path2-4"
       style="fill:#ffffff;fill-opacity:1;stroke-width:12.4155" />
  </g>
</svg>
